HIERARCHY
ROOT Hips
{
	OFFSET -19.144548 -40.654278 87.740608
	CHANNELS 6 Xposition Yposition Zposition Zrotation Yrotation Xrotation
	JOINT Spine
	{
		OFFSET 0.000000 2.080109 8.814247
		CHANNELS 6 Xposition Yposition Zposition Zrotation Yrotation Xrotation
		JOINT Spine1
		{
			OFFSET 0.000000 0.000000 8.844139
			CHANNELS 6 Xposition Yposition Zposition Zrotation Yrotation Xrotation
			JOINT Spine2
			{
				OFFSET 0.000000 0.000000 11.682266
				CHANNELS 6 Xposition Yposition Zposition Zrotation Yrotation Xrotation
				JOINT Spine3
				{
					OFFSET 0.000000 0.000004 11.746696
					CHANNELS 6 Xposition Yposition Zposition Zrotation Yrotation Xrotation
					JOINT Neck
					{
						OFFSET 0.000000 0.000000 17.658264
						CHANNELS 6 Xposition Yposition Zposition Zrotation Yrotation Xrotation
						JOINT Neck1
						{
							OFFSET 0.000000 0.000000 5.101517
							CHANNELS 6 Xposition Yposition Zposition Zrotation Yrotation Xrotation
							JOINT Head
							{
								OFFSET 0.000000 0.000000 5.101517
								CHANNELS 6 Xposition Yposition Zposition Zrotation Yrotation Xrotation
								JOINT HeadEnd
								{
									OFFSET 0.000000 0.000000 11.655090
									CHANNELS 6 Xposition Yposition Zposition Zrotation Yrotation Xrotation
									End Site
									{
										OFFSET 0.000000 0.000000 0.100006
									}
								}
							}
						}
					}
					JOINT RightShoulder
					{
						OFFSET -2.625389 0.000000 11.175217
						CHANNELS 6 Xposition Yposition Zposition Zrotation Yrotation Xrotation
						JOINT RightArm
						{
							OFFSET 0.000000 0.000000 10.434723
							CHANNELS 6 Xposition Yposition Zposition Zrotation Yrotation Xrotation
							JOINT RightForeArm
							{
								OFFSET 0.000000 0.000004 29.628418
								CHANNELS 6 Xposition Yposition Zposition Zrotation Yrotation Xrotation
								JOINT RightHand
								{
									OFFSET 0.000000 0.000000 22.857605
									CHANNELS 6 Xposition Yposition Zposition Zrotation Yrotation Xrotation
									JOINT RightHandThumb1
									{
										OFFSET -2.867323 -2.944290 3.959564
										CHANNELS 6 Xposition Yposition Zposition Zrotation Yrotation Xrotation
										JOINT RightHandThumb2
										{
											OFFSET 0.000000 0.000000 3.350403
											CHANNELS 6 Xposition Yposition Zposition Zrotation Yrotation Xrotation
											JOINT RightHandThumb3
											{
												OFFSET 0.000000 0.000000 3.756516
												CHANNELS 6 Xposition Yposition Zposition Zrotation Yrotation Xrotation
												JOINT RightHandThumb4
												{
													OFFSET 0.000000 0.000000 3.147339
													CHANNELS 6 Xposition Yposition Zposition Zrotation Yrotation Xrotation
													End Site
													{
														OFFSET 0.000000 0.000000 0.100006
													}
												}
											}
										}
									}
									JOINT RightHandIndex1
									{
										OFFSET -0.086752 -2.345280 10.030899
										CHANNELS 6 Xposition Yposition Zposition Zrotation Yrotation Xrotation
										JOINT RightHandIndex2
										{
											OFFSET 0.000000 0.000000 4.061096
											CHANNELS 6 Xposition Yposition Zposition Zrotation Yrotation Xrotation
											JOINT RightHandIndex3
											{
												OFFSET 0.000000 0.000000 3.248871
												CHANNELS 6 Xposition Yposition Zposition Zrotation Yrotation Xrotation
												JOINT RightHandIndex4
												{
													OFFSET 0.000000 0.000000 2.639709
													CHANNELS 6 Xposition Yposition Zposition Zrotation Yrotation Xrotation
													End Site
													{
														OFFSET 0.000000 0.000000 0.100006
													}
												}
											}
										}
									}
									JOINT RightHandMiddle1
									{
										OFFSET 0.104101 -0.006767 9.502945
										CHANNELS 6 Xposition Yposition Zposition Zrotation Yrotation Xrotation
										JOINT RightHandMiddle2
										{
											OFFSET 0.000000 0.000000 4.568726
											CHANNELS 6 Xposition Yposition Zposition Zrotation Yrotation Xrotation
											JOINT RightHandMiddle3
											{
												OFFSET 0.000000 0.000000 3.654984
												CHANNELS 6 Xposition Yposition Zposition Zrotation Yrotation Xrotation
												JOINT RightHandMiddle4
												{
													OFFSET 0.000000 0.000000 2.741241
													CHANNELS 6 Xposition Yposition Zposition Zrotation Yrotation Xrotation
													End Site
													{
														OFFSET 0.000000 0.000000 0.100006
													}
												}
											}
										}
									}
									JOINT RightHandRing1
									{
										OFFSET 0.086752 2.267441 8.921707
										CHANNELS 6 Xposition Yposition Zposition Zrotation Yrotation Xrotation
										JOINT RightHandRing2
										{
											OFFSET 0.000000 0.000000 4.061096
											CHANNELS 6 Xposition Yposition Zposition Zrotation Yrotation Xrotation
											JOINT RightHandRing3
											{
												OFFSET 0.000000 0.000000 3.654984
												CHANNELS 6 Xposition Yposition Zposition Zrotation Yrotation Xrotation
												JOINT RightHandRing4
												{
													OFFSET 0.000000 0.000000 2.741241
													CHANNELS 6 Xposition Yposition Zposition Zrotation Yrotation Xrotation
													End Site
													{
														OFFSET 0.000000 0.000000 0.100006
													}
												}
											}
										}
									}
									JOINT RightHandPinky1
									{
										OFFSET -0.173504 4.467197 7.976990
										CHANNELS 6 Xposition Yposition Zposition Zrotation Yrotation Xrotation
										JOINT RightHandPinky2
										{
											OFFSET 0.000000 0.000000 3.350403
											CHANNELS 6 Xposition Yposition Zposition Zrotation Yrotation Xrotation
											JOINT RightHandPinky3
											{
												OFFSET 0.000000 0.000000 2.842758
												CHANNELS 6 Xposition Yposition Zposition Zrotation Yrotation Xrotation
												JOINT RightHandPinky4
												{
													OFFSET 0.000000 0.000000 2.639709
													CHANNELS 6 Xposition Yposition Zposition Zrotation Yrotation Xrotation
													End Site
													{
														OFFSET 0.000000 0.000000 0.100006
													}
												}
											}
										}
									}
									JOINT RightForeArmEnd
									{
										OFFSET 0.000000 0.000000 0.000000
										CHANNELS 6 Xposition Yposition Zposition Zrotation Yrotation Xrotation
										End Site
										{
											OFFSET 0.000000 0.000000 0.100006
										}
									}
								}
								JOINT RightArmEnd
								{
									OFFSET 0.000000 0.000000 0.000000
									CHANNELS 6 Xposition Yposition Zposition Zrotation Yrotation Xrotation
									End Site
									{
										OFFSET 0.000000 0.000000 0.100006
									}
								}
							}
						}
					}
					JOINT LeftShoulder
					{
						OFFSET 2.625389 0.000000 11.175217
						CHANNELS 6 Xposition Yposition Zposition Zrotation Yrotation Xrotation
						JOINT LeftArm
						{
							OFFSET 0.000000 0.000000 10.813629
							CHANNELS 6 Xposition Yposition Zposition Zrotation Yrotation Xrotation
							JOINT LeftForeArm
							{
								OFFSET 0.000000 0.000004 28.724777
								CHANNELS 6 Xposition Yposition Zposition Zrotation Yrotation Xrotation
								JOINT LeftHand
								{
									OFFSET 0.644384 0.328873 25.716171
									CHANNELS 6 Xposition Yposition Zposition Zrotation Yrotation Xrotation
									JOINT LeftHandThumb1
									{
										OFFSET 2.867323 -2.944290 3.959564
										CHANNELS 6 Xposition Yposition Zposition Zrotation Yrotation Xrotation
										JOINT LeftHandThumb2
										{
											OFFSET 0.000000 0.000000 3.350403
											CHANNELS 6 Xposition Yposition Zposition Zrotation Yrotation Xrotation
											JOINT LeftHandThumb3
											{
												OFFSET 0.000000 0.000000 3.756516
												CHANNELS 6 Xposition Yposition Zposition Zrotation Yrotation Xrotation
												JOINT LeftHandThumb4
												{
													OFFSET 0.000000 0.000000 3.100006
													CHANNELS 6 Xposition Yposition Zposition Zrotation Yrotation Xrotation
													End Site
													{
														OFFSET 0.000000 0.000000 0.100006
													}
												}
											}
										}
									}
									JOINT LeftHandIndex1
									{
										OFFSET 0.086752 -2.345280 10.030899
										CHANNELS 6 Xposition Yposition Zposition Zrotation Yrotation Xrotation
										JOINT LeftHandIndex2
										{
											OFFSET 0.000000 0.000000 4.061096
											CHANNELS 6 Xposition Yposition Zposition Zrotation Yrotation Xrotation
											JOINT LeftHandIndex3
											{
												OFFSET 0.000000 0.000000 3.248871
												CHANNELS 6 Xposition Yposition Zposition Zrotation Yrotation Xrotation
												JOINT LeftHandIndex4
												{
													OFFSET 0.000000 0.000000 2.639709
													CHANNELS 6 Xposition Yposition Zposition Zrotation Yrotation Xrotation
													End Site
													{
														OFFSET 0.000000 0.000000 0.100006
													}
												}
											}
										}
									}
									JOINT LeftHandMiddle1
									{
										OFFSET -0.104102 -0.006767 9.502945
										CHANNELS 6 Xposition Yposition Zposition Zrotation Yrotation Xrotation
										JOINT LeftHandMiddle2
										{
											OFFSET 0.000000 0.000000 4.568726
											CHANNELS 6 Xposition Yposition Zposition Zrotation Yrotation Xrotation
											JOINT LeftHandMiddle3
											{
												OFFSET 0.000000 0.000000 3.654984
												CHANNELS 6 Xposition Yposition Zposition Zrotation Yrotation Xrotation
												JOINT LeftHandMiddle4
												{
													OFFSET 0.000000 0.000000 2.741241
													CHANNELS 6 Xposition Yposition Zposition Zrotation Yrotation Xrotation
													End Site
													{
														OFFSET 0.000000 0.000000 0.100006
													}
												}
											}
										}
									}
									JOINT LeftHandRing1
									{
										OFFSET -0.086752 2.267441 8.921707
										CHANNELS 6 Xposition Yposition Zposition Zrotation Yrotation Xrotation
										JOINT LeftHandRing2
										{
											OFFSET 0.000000 0.000000 4.061096
											CHANNELS 6 Xposition Yposition Zposition Zrotation Yrotation Xrotation
											JOINT LeftHandRing3
											{
												OFFSET 0.000000 0.000000 3.654984
												CHANNELS 6 Xposition Yposition Zposition Zrotation Yrotation Xrotation
												JOINT LeftHandRing4
												{
													OFFSET 0.000000 0.000000 2.741241
													CHANNELS 6 Xposition Yposition Zposition Zrotation Yrotation Xrotation
													End Site
													{
														OFFSET 0.000000 0.000000 0.100006
													}
												}
											}
										}
									}
									JOINT LeftHandPinky1
									{
										OFFSET 0.173504 4.467197 7.976990
										CHANNELS 6 Xposition Yposition Zposition Zrotation Yrotation Xrotation
										JOINT LeftHandPinky2
										{
											OFFSET 0.000000 0.000000 3.350403
											CHANNELS 6 Xposition Yposition Zposition Zrotation Yrotation Xrotation
											JOINT LeftHandPinky3
											{
												OFFSET 0.000000 0.000000 2.842758
												CHANNELS 6 Xposition Yposition Zposition Zrotation Yrotation Xrotation
												JOINT LeftHandPinky4
												{
													OFFSET 0.000000 0.000000 2.639709
													CHANNELS 6 Xposition Yposition Zposition Zrotation Yrotation Xrotation
													End Site
													{
														OFFSET 0.000000 0.000000 0.100006
													}
												}
											}
										}
									}
									JOINT LeftForeArmEnd
									{
										OFFSET 0.000000 0.000000 0.000000
										CHANNELS 6 Xposition Yposition Zposition Zrotation Yrotation Xrotation
										End Site
										{
											OFFSET 0.000000 0.000000 0.100006
										}
									}
								}
								JOINT LeftArmEnd
								{
									OFFSET 0.000000 0.000000 0.000000
									CHANNELS 6 Xposition Yposition Zposition Zrotation Yrotation Xrotation
									End Site
									{
										OFFSET 0.000000 0.000000 0.100006
									}
								}
							}
						}
					}
				}
			}
		}
	}
	JOINT RightUpLeg
	{
		OFFSET -11.289942 0.000000 0.000000
		CHANNELS 6 Xposition Yposition Zposition Zrotation Yrotation Xrotation
		JOINT RightLeg
		{
			OFFSET 0.000000 -0.000004 -38.200321
			CHANNELS 6 Xposition Yposition Zposition Zrotation Yrotation Xrotation
			JOINT RightFoot
			{
				OFFSET 0.000000 -0.000004 -39.900856
				CHANNELS 6 Xposition Yposition Zposition Zrotation Yrotation Xrotation
				JOINT RightToeBase
				{
					OFFSET 0.000000 -15.261639 0.000001
					CHANNELS 6 Xposition Yposition Zposition Zrotation Yrotation Xrotation
					JOINT RightToeBaseEnd
					{
						OFFSET 0.000000 -7.370708 0.000001
						CHANNELS 6 Xposition Yposition Zposition Zrotation Yrotation Xrotation
						End Site
						{
							OFFSET 0.000000 0.000000 0.100000
						}
					}
				}
				JOINT RightLegEnd
				{
					OFFSET 0.000000 0.000000 0.000000
					CHANNELS 6 Xposition Yposition Zposition Zrotation Yrotation Xrotation
					End Site
					{
						OFFSET 0.000000 0.000000 0.100000
					}
				}
			}
			JOINT RightUpLegEnd
			{
				OFFSET 0.000000 0.000000 0.000000
				CHANNELS 6 Xposition Yposition Zposition Zrotation Yrotation Xrotation
				End Site
				{
					OFFSET 0.000000 0.000000 0.099998
				}
			}
		}
	}
	JOINT LeftUpLeg
	{
		OFFSET 11.315661 0.000000 0.000000
		CHANNELS 6 Xposition Yposition Zposition Zrotation Yrotation Xrotation
		JOINT LeftLeg
		{
			OFFSET 0.000000 -0.000004 -38.200321
			CHANNELS 6 Xposition Yposition Zposition Zrotation Yrotation Xrotation
			JOINT LeftFoot
			{
				OFFSET 0.000000 -0.000004 -39.900856
				CHANNELS 6 Xposition Yposition Zposition Zrotation Yrotation Xrotation
				JOINT LeftToeBase
				{
					OFFSET 0.000000 -15.261639 0.000001
					CHANNELS 6 Xposition Yposition Zposition Zrotation Yrotation Xrotation
					JOINT LeftToeBaseEnd
					{
						OFFSET 0.000000 -7.539997 0.000001
						CHANNELS 6 Xposition Yposition Zposition Zrotation Yrotation Xrotation
						End Site
						{
							OFFSET 0.000000 0.000000 0.100000
						}
					}
				}
				JOINT LeftLegEnd
				{
					OFFSET 0.000000 0.000000 0.000000
					CHANNELS 6 Xposition Yposition Zposition Zrotation Yrotation Xrotation
					End Site
					{
						OFFSET 0.000000 0.000000 0.100000
					}
				}
			}
			JOINT LeftUpLegEnd
			{
				OFFSET 0.000000 0.000000 0.000000
				CHANNELS 6 Xposition Yposition Zposition Zrotation Yrotation Xrotation
				End Site
				{
					OFFSET 0.000000 0.000000 0.099998
				}
			}
		}
	}
}
MOTION
Frames: 2
Frame Time: 0.016667
14.465540 -18.040752 87.449272 2.884483 2.380082 -11.830173 -0.000001 2.080110 8.814246 0.404260 0.804319 5.589260 -0.000001 0.000001 8.844138 2.216486 5.939041 12.412362 -0.000003 -0.000008 11.682274 -2.048336 -10.220729 9.872285 -0.000002 0.000005 11.746708 0.625258 0.218443 -1.221681 -0.000002 0.000002 17.658283 4.577991 -10.580204 -2.231026 -0.000001 0.000005 5.101521 6.433015 4.446060 -14.931992 0.000002 -0.000002 5.101557 3.738495 0.958921 -18.492602 0.000004 -0.000004 11.655106 0.000000 0.000000 -0.000000 -2.625391 -0.000001 11.175233 8.431518 -96.118875 -0.354890 0.000010 0.000004 10.434716 -52.865671 -28.666864 37.102520 0.000002 -0.000002 29.628418 8.271232 -2.461220 32.670318 -0.000004 0.000009 22.857607 -3.419953 -5.421144 -15.718801 -2.867325 -2.944310 3.959567 31.831431 -15.890498 53.646730 0.000002 -0.000003 3.350425 -9.650564 7.050013 -17.761922 0.000005 0.000006 3.756542 -6.465130 5.219131 -12.193510 0.000004 -0.000003 3.147323 0.000001 0.000002 0.000001 -0.086757 -2.345279 10.030909 -9.556567 -5.293176 4.119099 -0.000003 -0.000000 4.061110 0.479188 -4.115019 0.579133 0.000004 0.000007 3.248897 -0.020794 -4.112830 0.579105 0.000001 0.000004 2.639710 0.000002 0.000000 -0.000001 0.104095 -0.006764 9.502966 -4.747308 -6.836899 1.235581 0.000004 0.000004 4.568722 0.488264 -4.897776 0.257375 -0.000002 -0.000000 3.654996 -0.011348 -4.897804 0.257334 0.000003 0.000002 2.741241 0.000001 0.000000 0.000001 0.086750 2.267440 8.921689 2.886156 -9.351127 -1.115049 -0.000005 -0.000003 4.061120 -0.976093 -6.676868 -0.410224 -0.000003 -0.000004 3.654986 0.023951 -6.676639 -0.410273 -0.000001 0.000006 2.741241 0.000002 0.000001 0.000001 -0.173509 4.467199 7.976992 11.146158 -10.252099 -6.312534 -0.000005 0.000000 3.350414 -1.891663 -7.959127 -1.557287 -0.000001 0.000000 2.842775 0.108347 -7.958968 -1.557350 -0.000001 0.000001 2.639695 -0.000004 0.000001 -0.000001 -0.000004 -0.000002 0.000002 0.000001 0.000001 -0.000002 -0.000003 -0.000005 -0.000000 -0.000001 0.000000 0.000000 2.625397 -0.000002 11.175230 -9.184957 92.444882 -0.848895 -0.000007 -0.000001 10.813637 64.655568 27.686168 47.872810 0.000002 -0.000006 28.724771 5.550823 -2.229086 45.383585 0.644374 0.328861 25.716206 -8.582239 7.204869 -23.181373 2.867330 -2.944285 3.959566 -32.365073 13.750589 57.171764 0.000001 -0.000011 3.350410 5.044781 -4.261354 -9.634779 0.000003 0.000004 3.756521 3.426255 -3.050256 -6.647983 0.000002 -0.000004 3.100024 0.000003 0.000000 -0.000003 0.086753 -2.345271 10.030926 -9.735229 -6.566076 1.229097 -0.000002 0.000001 4.061119 0.508947 0.048694 0.000407 -0.000000 -0.000008 3.248873 0.008090 -0.027042 0.000249 -0.000000 -0.000008 2.639709 -0.000001 -0.000001 -0.000000 -0.104102 -0.006756 9.502946 -4.322328 -4.697333 -1.510680 -0.000003 -0.000009 4.568736 0.506046 0.000051 0.000006 -0.000002 -0.000002 3.654976 0.005484 0.000008 0.000631 -0.000001 -0.000001 2.741226 0.000001 -0.000000 0.000001 -0.086753 2.267446 8.921724 4.413928 -0.337047 -2.154905 0.000000 0.000006 4.061110 -1.003320 0.059415 -0.001048 -0.000002 -0.000001 3.654984 -0.003037 -0.031181 0.000552 0.000001 0.000006 2.741242 -0.000000 -0.000001 -0.000001 0.173502 4.467204 7.976998 13.553747 3.695121 -2.279391 -0.000002 -0.000005 3.350393 -1.991626 2.154543 0.419024 0.000004 -0.000001 2.842776 0.008076 2.154540 0.419002 -0.000003 0.000000 2.639694 -0.000000 -0.000001 0.000000 -0.000001 0.000008 -0.000015 -0.000002 0.000000 0.000000 -0.000005 -0.000002 0.000015 -0.000001 -0.000001 -0.000000 -11.289942 -0.000000 0.000017 -3.537745 0.062479 9.939749 -0.000000 -0.000007 -38.200310 -0.810898 0.202969 14.051523 -0.000002 -0.000001 -39.900856 -4.528652 4.371456 17.150410 0.000001 -15.261641 0.000001 -0.799991 0.040209 -31.130424 0.000000 -7.370709 0.000001 0.000001 -0.000000 -0.000000 0.000001 -0.000001 -0.000001 0.000001 -0.000000 -0.000003 0.000000 -0.000004 0.000007 -0.000000 0.000000 0.000001 11.315661 -0.000003 0.000005 5.972045 -1.897681 10.836770 0.000000 -0.000005 -38.200310 0.436182 -0.114966 14.765438 0.000001 -0.000003 -39.900864 2.609361 -7.347257 12.011478 0.000001 -15.261641 0.000005 0.997599 -0.205499 -28.779128 -0.000001 -7.540001 0.000002 0.000000 -0.000000 -0.000000 0.000001 0.000000 0.000002 0.000001 0.000000 0.000002 -0.000000 0.000001 0.000003 -0.000001 0.000000 0.000001 
14.237906 -17.967033 87.452408 3.127686 2.341312 -11.925321 -0.000000 2.080112 8.814241 0.353962 0.661669 5.443418 -0.000002 0.000002 8.844160 2.323754 6.096930 12.811611 -0.000003 -0.000003 11.682276 -2.094559 -10.418431 9.607757 -0.000003 -0.000001 11.746685 0.637704 0.349353 -1.247920 -0.000003 0.000001 17.658264 4.487131 -10.525550 -2.130742 -0.000002 -0.000003 5.101543 6.305702 4.452487 -14.934622 0.000001 -0.000002 5.101522 3.715847 0.936385 -18.449729 0.000006 -0.000002 11.655091 0.000000 -0.000000 -0.000002 -2.625387 0.000002 11.175211 8.866421 -96.027255 -0.422012 -0.000031 -0.000005 10.434719 -49.171912 -28.709136 36.262099 0.000006 0.000008 29.628424 9.925771 -2.919877 32.843398 -0.000006 0.000006 22.857641 -4.037637 -4.530145 -15.541091 -2.867321 -2.944314 3.959576 31.863857 -15.721417 53.915881 0.000003 0.000004 3.350418 -9.281711 6.858931 -17.127603 0.000011 0.000005 3.756537 -6.223687 5.062937 -11.762327 -0.000001 0.000000 3.147324 -0.000003 0.000002 0.000001 -0.086745 -2.345286 10.030902 -9.378000 -4.312240 4.581832 0.000011 0.000005 4.061106 0.485164 -3.478365 0.489458 -0.000000 0.000000 3.248881 -0.014859 -3.478372 0.489453 -0.000007 0.000002 2.639709 0.000000 0.000000 0.000000 0.104103 -0.006772 9.502972 -4.568654 -5.846405 1.722538 -0.000002 0.000001 4.568725 0.489708 -4.217021 0.221564 -0.000002 -0.000002 3.654980 -0.009618 -4.217030 0.221517 0.000001 0.000001 2.741242 -0.000001 0.000000 -0.000001 0.086753 2.267438 8.921690 3.080792 -8.237928 -0.566916 -0.000007 -0.000005 4.061111 -0.981596 -5.858563 -0.359585 -0.000002 0.000004 3.654986 0.018388 -5.858540 -0.359529 -0.000006 -0.000001 2.741226 -0.000002 0.000000 0.000000 -0.173501 4.467193 7.976995 11.344643 -9.048284 -5.660798 -0.000006 -0.000004 3.350424 -1.915414 -7.038791 -1.375256 -0.000002 -0.000000 2.842781 0.084581 -7.038795 -1.375260 -0.000006 0.000001 2.639709 -0.000002 0.000001 0.000002 0.000003 -0.000003 0.000000 -0.000000 0.000001 -0.000000 -0.000001 0.000000 0.000015 -0.000004 -0.000000 0.000001 2.625386 -0.000001 11.175219 -9.487718 92.480953 -1.033018 0.000009 -0.000005 10.813633 61.107817 28.313501 46.904661 -0.000005 0.000011 28.724771 2.268201 -0.031541 45.051959 0.644381 0.328875 25.716139 -5.397032 6.823356 -23.329192 2.867326 -2.944302 3.959570 -32.415955 13.591579 57.445675 0.000004 -0.000008 3.350413 4.708418 -4.020508 -9.020820 0.000003 -0.000003 3.756515 3.201707 -2.871520 -6.226799 -0.000007 -0.000000 3.099991 0.000002 0.000001 0.000001 0.086754 -2.345287 10.030935 -9.903247 -7.497112 0.566187 -0.000007 -0.000001 4.061103 0.510548 -0.000006 -0.000033 0.000001 -0.000006 3.248856 0.009652 0.000015 0.000307 -0.000005 -0.000008 2.639724 0.000001 -0.000001 -0.000000 -0.104098 -0.006770 9.502987 -4.471197 -5.555894 -2.119930 -0.000003 -0.000001 4.568720 0.507743 0.000096 0.000003 -0.000007 0.000002 3.655007 0.007072 0.000002 0.000788 -0.000004 -0.000006 2.741257 0.000000 0.000001 0.000000 -0.086752 2.267434 8.921742 4.284023 -1.006839 -2.562970 0.000008 0.000004 4.061106 -1.005361 -0.000011 0.000004 0.000000 -0.000004 3.654982 -0.004887 0.000001 -0.000265 0.000002 -0.000003 2.741241 -0.000001 0.000000 0.000001 0.173509 4.467190 7.977027 13.441893 3.123275 -2.416745 0.000002 0.000000 3.350422 -1.994838 1.743403 0.339180 -0.000002 0.000005 2.842773 0.005400 1.744610 0.339127 -0.000002 -0.000002 2.639724 0.000002 0.000000 0.000001 0.000003 -0.000003 0.000015 0.000001 -0.000000 -0.000000 -0.000002 -0.000000 -0.000015 0.000003 0.000001 -0.000000 -11.289941 -0.000002 0.000010 -3.690322 -0.038693 9.997485 -0.000000 -0.000001 -38.200310 -0.800303 0.201167 14.108300 -0.000001 0.000000 -39.900860 -4.680919 4.519367 17.090402 0.000001 -15.261641 0.000005 -0.810379 0.041150 -31.074246 -0.000000 -7.370712 0.000001 0.000000 -0.000000 0.000000 -0.000001 -0.000000 0.000000 0.000000 -0.000000 -0.000004 0.000000 0.000003 0.000004 -0.000000 0.000000 0.000000 11.315660 -0.000010 0.000023 5.782963 -1.993085 10.726542 0.000003 -0.000010 -38.200317 0.448843 -0.120086 14.972536 0.000001 -0.000003 -39.900860 2.499359 -7.206855 12.051193 -0.000002 -15.261642 0.000002 0.986103 -0.210715 -28.776502 0.000000 -7.540001 0.000001 0.000000 0.000000 -0.000000 -0.000000 0.000001 0.000002 -0.000001 0.000000 0.000003 0.000001 -0.000003 0.000000 -0.000001 0.000000 0.000000 
